:SAMPLES-PER-SECOND 30
:FULLY-SPECIFIED
:DEGREES
74
root  -35.8521 38.8678 5.86266 74.3335 -88.1393 -81.3383
RightUpLeg  -1.5016 -7.20443 3.25896
RightLeg  26.5653 -1.8978 -1.27102
RightFoot  -17.3273 -0.33128 -4.09462
RightToes  -5.8209e-011 0 -3.6325e-017
Spine  5.97061 -1.25311 13.4074
Spine1  11.5084 0.958627 -3.51889
HEad  -10.4114 0.520471 -5.28323
LeftShoulder1  -0.103206 3.77872 -31.4321
LeftArm  12.2989 -0.62027 -42.999
LeftForeArm  10.321 -24.3851 -4.60562
LeftHand  0.048023 6.95254 5.80279
RightShoulder  -0.351132 -4.59977 24.9648
RightArm  5.17128 7.76731 43.7461
RightForeArm  6.86196 30.3768 6.25599
RightHand  -0.391902 3.85995 -5.17286
LeftUpLeg  -21.2533 3.32428 4.30203
LeftLeg  51.1495 -1.76905 -1.92531
LeftFoot  -3.06212 0.246566 -3.16604
LeftToes  -8.31281e-010 4.41007e-011 3.74621e-011
75
root  -37.1436 39.0054 5.7875 102.859 -88.3234 -110
RightUpLeg  2.10194 -6.67966 2.88249
RightLeg  24.0496 -1.60543 -1.0161
RightFoot  -17.9778 -0.359832 -4.10826
RightToes  -5.8209e-011 0 -3.6325e-017
Spine  5.33178 -0.804037 12.7146
Spine1  11.6224 1.18717 -3.76854
HEad  -10.1812 0.588596 -5.45487
LeftShoulder1  -0.0804533 3.71711 -31.599
LeftArm  9.19795 -0.0263212 -42.1154
LeftForeArm  12.1451 -26.4409 -5.03409
LeftHand  0.0182644 6.25558 6.04601
RightShoulder  -0.302616 -4.46763 24.2411
RightArm  4.51996 8.62229 44.5961
RightForeArm  7.42918 33.9176 7.14044
RightHand  -0.448622 4.3708 -5.61967
LeftUpLeg  -21.6765 4.60488 4.05555
LeftLeg  40.2927 -1.82905 -1.28274
LeftFoot  -2.89281 0.271117 -3.40857
LeftToes  -8.31281e-010 4.41007e-011 3.74621e-011
76
root  -38.4368 39.0738 5.73059 131.387 -87.9422 -138.617
RightUpLeg  5.67223 -6.93234 2.22811
RightLeg  21.4603 -0.450869 -0.431204
RightFoot  -18.7618 -0.396195 -4.15049
RightToes  -5.8209e-011 0 -3.6325e-017
Spine  4.84827 -0.456176 11.9834
Spine1  11.73 1.42863 -4.26223
HEad  -10.7798 1.15622 -4.90827
LeftShoulder1  -0.108196 3.79224 -31.4048
LeftArm  6.9665 0.141546 -41.5127
LeftForeArm  12.7697 -28.2267 -5.40855
LeftHand  0.0118663 6.03337 6.69708
RightShoulder  -0.371638 -4.67282 24.7961
RightArm  4.78819 10.0618 44.6331
RightForeArm  7.47053 37.1844 8.0583
RightHand  -0.437006 3.71 -5.82637
LeftUpLeg  -21.0768 6.0183 3.86631
LeftLeg  27.7132 -2.22152 -0.90025
LeftFoot  -1.85873 0.432769 -5.09043
LeftToes  -8.31281e-010 4.41007e-011 3.74621e-011
77
root  -39.733 39.093 5.69053 149.669 -87.1759 -156.832
RightUpLeg  9.02442 -6.99508 1.52038
RightLeg  18.9189 0.714658 -0.00980637
RightFoot  -19.4212 -0.42124 -4.10228
RightToes  -5.8209e-011 0 -3.6325e-017
Spine  4.08629 -0.198135 11.1673
Spine1  12.3038 1.65961 -4.95074
HEad  -10.998 2.12653 -4.78943
LeftShoulder1  -0.131636 3.85799 -31.0234
LeftArm  4.78336 0.41406 -40.93
LeftForeArm  13.2522 -30.3246 -5.88376
LeftHand  -0.00749582 5.65219 6.94514
RightShoulder  -0.378328 -4.69052 24.8905
RightArm  4.72744 11.0671 45.4531
RightForeArm  7.43337 40.0034 8.93605
RightHand  -0.431777 4.09509 -5.55545
LeftUpLeg  -19.7032 6.27058 3.85929
LeftLeg  14.2755 -2.06412 -0.414066
LeftFoot  -0.995313 0.515138 -5.62478
LeftToes  -8.31281e-010 4.41007e-011 3.74621e-011
78
root  -41.03 39.0332 5.66024 156.069 -86.2783 -163.282
RightUpLeg  12.3938 -6.85742 1.00851
RightLeg  16.5785 1.6677 0.158886
RightFoot  -20.1876 -0.413599 -3.58943
RightToes  -5.8209e-011 0 -3.6325e-017
Spine  3.64654 -0.116645 10.0544
Spine1  12.8021 1.67642 -5.19765
HEad  -11.7719 2.63855 -4.24451
LeftShoulder1  -0.134896 3.87078 -30.6037
LeftArm  2.22255 1.11621 -40.2942
LeftForeArm  15.005 -33.0359 -6.45877
LeftHand  -0.01387 5.57503 6.5098
RightShoulder  -0.329323 -4.54063 24.6703
RightArm  4.36471 11.5272 46.618
RightForeArm  7.76795 42.848 9.87519
RightHand  -0.454008 4.63481 -5.53731
LeftUpLeg  -18.1169 5.06276 4.43859
LeftLeg  2.47739 -0.0994843 0.0309709
LeftFoot  -0.686129 0.545579 -5.80363
LeftToes  -8.31281e-010 4.41007e-011 3.74621e-011
79
root  -42.4379 38.7946 5.70326 157.992 -85.2278 -165.287
RightUpLeg  15.2713 -6.57124 0.557881
RightLeg  15.7951 2.64833 0.248197
RightFoot  -21.7224 -0.402157 -2.80102
RightToes  -5.8209e-011 0 -3.6325e-017
Spine  2.93619 0.0523436 9.37658
Spine1  13.5989 1.77114 -5.13136
HEad  -12.4667 3.07109 -3.98534
LeftShoulder1  -0.186808 4.00803 -30.96
LeftArm  0.867173 0.776148 -39.2826
LeftForeArm  15.6037 -35.0465 -6.95658
LeftHand  -0.0747711 4.43302 7.07887
RightShoulder  -0.295865 -4.44232 24.3538
RightArm  4.04126 11.6772 47.7686
RightForeArm  7.51933 45.3541 10.8374
RightHand  -0.49661 4.48642 -6.11362
LeftUpLeg  -18.144 5.33568 4.76708
LeftLeg  -2.6074 -0.0943235 -0.0449432
LeftFoot  -1.90183 0.511679 -6.06618
LeftToes  -8.31281e-010 4.41007e-011 3.74621e-011
80
root  -43.9092 38.4165 5.81017 158.342 -84.8684 -166.115
RightUpLeg  18.1231 -6.64185 -0.360782
RightLeg  16.3705 3.36777 0.437159
RightFoot  -23.7665 -0.38065 -2.03527
RightToes  -5.8209e-011 0 -3.6325e-017
Spine  2.79483 0.0152697 9.01912
Spine1  14.2151 1.82108 -5.30144
HEad  -13.1573 3.01937 -3.57277
LeftShoulder1  -0.107346 3.79461 -30.6913
LeftArm  -0.773412 0.146277 -38.8193
LeftForeArm  16.9316 -37.1422 -7.46117
LeftHand  -0.108846 3.78154 6.77851
RightShoulder  -0.28335 -4.40431 24.2659
RightArm  3.22841 11.6926 48.3676
RightForeArm  7.42337 47.8512 11.8669
RightHand  -0.446705 3.94231 -5.82015
LeftUpLeg  -18.8221 5.05555 4.46688
LeftLeg  -1.03996 -0.613216 0.0348301
LeftFoot  -2.52326 0.518592 -6.43226
LeftToes  -8.31281e-010 4.41007e-011 3.74621e-011
81
root  -45.405 38.0329 5.95501 162.409 -84.2157 -170.329
RightUpLeg  20.0726 -5.55675 -1.23833
RightLeg  17.8467 3.32114 0.566258
RightFoot  -25.5434 -0.210408 -0.286405
RightToes  -5.8209e-011 0 -3.6325e-017
Spine  2.56181 0.117015 8.52558
Spine1  14.76 2.15518 -5.95236
HEad  -13.85 3.41594 -3.16581
LeftShoulder1  -0.0862517 3.74711 -29.3288
LeftArm  -2.45465 -0.466 -39.3495
LeftForeArm  17.7018 -39.389 -8.07834
LeftHand  -0.0940516 4.1829 7.4802
RightShoulder  -0.241884 -4.26487 24.3879
RightArm  2.77677 12.4472 48.7531
RightForeArm  6.30218 49.0375 12.487
RightHand  -0.495996 4.45519 -6.13304
LeftUpLeg  -20.6379 4.59929 3.74778
LeftLeg  5.08383 -0.311968 0.146083
LeftFoot  1.20104 0.402124 -4.11677
LeftToes  -8.31281e-010 4.41007e-011 3.74621e-011
82
root  -46.9251 37.7309 6.13228 170.569 -83.1188 -179.025
RightUpLeg  21.9702 -2.79549 -2.18129
RightLeg  19.9812 2.43123 0.65203
RightFoot  -26.352 0.154842 2.48621
RightToes  -5.8209e-011 0 -3.6325e-017
Spine  2.63519 0.651687 7.38974
Spine1  15.5712 2.79916 -6.16056
HEad  -14.513 2.96365 -2.91388
LeftShoulder1  -0.124457 3.85228 -29.5732
LeftArm  -3.09687 -2.05423 -39.0094
LeftForeArm  17.9786 -41.3886 -8.68922
LeftHand  -0.105881 4.06804 7.96225
RightShoulder  -0.198855 -4.13563 23.916
RightArm  2.20716 13.8929 48.6817
RightForeArm  4.90699 49.3831 12.7554
RightHand  -0.523671 3.95306 -6.76346
LeftUpLeg  -21.8833 4.43745 2.64455
LeftLeg  11.1456 0.0444382 0.211405
LeftFoot  9.9827 0.0917185 -0.687375
LeftToes  -8.31281e-010 4.41007e-011 3.74621e-011
83
root  -48.416 37.3738 6.31263 -178.733 -82.3476 169.553
RightUpLeg  22.4311 -0.57967 -3.97145
RightLeg  25.3786 2.07924 0.893093
RightFoot  -26.7643 0.809597 7.31081
RightToes  -5.8209e-011 0 -3.6325e-017
Spine  3.82572 0.999003 5.17319
Spine1  15.2028 3.02877 -5.85619
HEad  -15.5347 2.76821 -2.29577
LeftShoulder1  -0.0920477 3.76416 -29.2922
LeftArm  -3.72937 -3.81046 -38.96
LeftForeArm  17.9699 -42.7161 -9.13523
LeftHand  -0.119292 3.86345 7.96112
RightShoulder  -0.161315 -4.00942 23.9114
RightArm  1.16282 16.2232 48.5993
RightForeArm  3.89474 48.3113 12.337
RightHand  -0.49684 4.10994 -6.33628
LeftUpLeg  -23.1429 4.4285 1.03044
LeftLeg  18.5492 -0.808606 0.0313949
LeftFoot  12.4528 -0.0983667 0.158999
LeftToes  -8.31281e-010 4.41007e-011 3.74621e-011
84
root  -49.6857 37.1653 6.50896 -167.68 -81.6925 158.113
RightUpLeg  19.8921 -0.658887 -7.40657
RightLeg  34.5873 3.01153 1.97441
RightFoot  -23.8737 1.30927 13.9035
RightToes  -5.8209e-011 0 -3.6325e-017
Spine  5.69861 1.31027 2.86019
Spine1  14.6177 3.19588 -6.08563
HEad  -16.2184 1.98258 -2.03379
LeftShoulder1  -0.000761773 3.50474 -29.2873
LeftArm  -4.26821 -6.39373 -38.8658
LeftForeArm  18.0483 -43.9191 -9.54919
LeftHand  -0.0959739 4.20628 7.77013
RightShoulder  -0.0766928 -3.74205 22.8142
RightArm  -0.641659 18.5755 49.0394
RightForeArm  2.20566 46.8722 11.8291
RightHand  -0.542313 4.31299 -6.75851
LeftUpLeg  -24.1467 5.48648 -1.40362
LeftLeg  24.9055 -1.01164 -0.170206
LeftFoot  9.11939 -0.589825 2.94972
LeftToes  -8.31281e-010 4.41007e-011 3.74621e-011
85
root  -50.7067 37.1335 6.77517 -162.764 -80.1286 153.266
RightUpLeg  13.5431 0.0187822 -10.2642
RightLeg  46.8502 2.65944 2.6916
RightFoot  -14.8838 0.590825 18.0514
RightToes  -5.8209e-011 0 -3.6325e-017
Spine  8.35179 1.46313 2.34383
Spine1  13.4052 3.72928 -8.298
HEad  -16.8733 1.57852 -2.25583
LeftShoulder1  0.183513 2.9703 -28.2732
LeftArm  -5.47834 -9.00969 -39.3692
LeftForeArm  17.6604 -44.7344 -9.87289
LeftHand  -0.161826 3.37571 8.66887
RightShoulder  -0.0133054 -3.52134 22.1592
RightArm  -2.06696 22.4773 49.2967
RightForeArm  0.350578 45.0883 11.2216
RightHand  -0.572491 4.25349 -7.16193
LeftUpLeg  -24.1929 6.71602 -3.14872
LeftLeg  28.0825 -0.694312 -0.0527497
LeftFoot  6.30689 -0.727051 4.42697
LeftToes  -8.31281e-010 4.41007e-011 3.74621e-011
86
root  -51.6316 37.2055 7.01399 -160.307 -78.4132 151.003
RightUpLeg  5.03774 1.12862 -12.2267
RightLeg  59.4354 1.83666 2.87804
RightFoot  -1.82798 -0.989882 11.4251
RightToes  -5.8209e-011 0 -3.6325e-017
Spine  10.8152 1.45204 1.37669
Spine1  12.3348 3.80951 -9.07263
HEad  -18.4898 1.75306 -3.31837
LeftShoulder1  0.345159 2.47348 -27.2779
LeftArm  -7.19713 -12.2579 -39.7267
LeftForeArm  17.1198 -45.4116 -10.1646
LeftHand  -0.187423 3.07305 8.88301
RightShoulder  0.137796 -2.97279 20.6879
RightArm  -3.86889 27.4774 50.0479
RightForeArm  0.0724776 43.396 10.5884
RightHand  -0.578441 4.01439 -7.39384
LeftUpLeg  -23.6538 7.50238 -4.60662
LeftLeg  29.7104 0.0889236 0.413955
LeftFoot  4.10505 -0.752251 5.34816
LeftToes  -8.31281e-010 4.41007e-011 3.74621e-011
